<svg width="796" height="82" viewBox="0 0 796 82" fill="none" xmlns="http://www.w3.org/2000/svg">
<path d="M0.398238 25.8772H15.2925V33.8488H15.6072C17.0057 30.9119 19.051 28.6043 21.7432 26.9261C24.4703 25.2479 27.5995 24.4087 31.1308 24.4087C35.0117 24.4087 38.3331 25.4227 41.0952 27.4505C43.8923 29.4434 45.9726 32.3104 47.3361 36.0514H47.7032C48.892 32.4502 50.9723 29.6182 53.9442 27.5554C56.951 25.4576 60.4997 24.4087 64.5904 24.4087C68.4363 24.4087 71.7578 25.3528 74.5549 27.2408C77.3519 29.1288 79.5021 31.8384 81.0056 35.3697C82.509 38.9009 83.2607 43.079 83.2607 47.9039V80H68.3664V50.4213C68.3314 46.5054 67.5273 43.4636 65.954 41.2959C64.4156 39.1282 62.2479 38.0443 59.4508 38.0443C56.479 38.0443 54.049 39.268 52.161 41.7155C50.273 44.1279 49.3115 47.7466 49.2766 52.5715V80H34.3823V50.4213C34.3474 46.5054 33.5432 43.4636 31.9699 41.2959C30.4315 39.1282 28.2638 38.0443 25.4667 38.0443C22.4949 38.0443 20.065 39.268 18.177 41.7155C16.2889 44.1279 15.3275 47.7466 15.2925 52.5715V80H0.398238V25.8772ZM122.594 81.4684C116.825 81.4684 111.703 80.2447 107.228 77.7973C102.788 75.315 99.3262 71.9061 96.8438 67.5706C94.3614 63.2352 93.1202 58.3579 93.1202 52.9386C93.1202 47.4494 94.344 42.5371 96.7914 38.2017C99.2737 33.8663 102.665 30.4923 106.966 28.0799C111.301 25.6325 116.161 24.4087 121.545 24.4087C126.93 24.4087 131.702 25.615 135.863 28.0274C140.058 30.4399 143.31 33.8138 145.617 38.1492C147.96 42.4497 149.131 47.3445 149.131 52.8337C149.131 54.5469 149.026 56.1902 148.816 57.7635H108.172C108.801 61.2598 110.427 64.0568 113.049 66.1546C115.671 68.2524 118.853 69.3013 122.594 69.3013C125.356 69.3013 127.716 68.7069 129.674 67.5182C131.667 66.3294 133.188 64.6512 134.237 62.4835L147.243 67.4133C144.97 71.8186 141.719 75.2625 137.488 77.7449C133.293 80.2273 128.328 81.4684 122.594 81.4684ZM133.922 46.4355C133.677 44.5475 133.013 42.8692 131.929 41.4008C130.845 39.8974 129.394 38.7261 127.576 37.887C125.793 37.0129 123.783 36.5759 121.545 36.5759C118.294 36.5759 115.497 37.4674 113.154 39.2506C110.812 40.9987 109.238 43.3937 108.434 46.4355H133.922ZM154.376 25.8772H163.396V21.0523C163.361 14.4443 165.004 9.35715 168.326 5.79092C171.647 2.18973 176.367 0.389132 182.486 0.389132C185.842 0.389132 188.989 0.948541 191.926 2.06736V15.4932C189.618 14.8638 187.555 14.5492 185.737 14.5492C183.115 14.5492 181.21 15.161 180.021 16.3847C178.832 17.5735 178.255 19.479 178.29 22.1012V25.8772H191.926V37.5199H178.29V80H163.396V37.5199H154.376V25.8772ZM202.52 25.8772H217.414V33.7439H217.781C219.214 30.8419 221.172 28.5694 223.655 26.9261C226.172 25.2479 228.952 24.4087 231.993 24.4087C233.532 24.4087 235.28 24.6885 237.238 25.2479V39.4079C235 38.8485 232.868 38.5338 230.84 38.4639C226.504 38.4989 223.183 39.9498 220.875 42.8168C218.603 45.6838 217.449 49.8094 217.414 55.1937V80H202.52V25.8772ZM247.937 25.8772H262.831V80H247.937V25.8772ZM255.331 17.9056C253.688 17.9056 252.185 17.5385 250.821 16.8043C249.458 16.0351 248.391 14.9862 247.622 13.6576C246.888 12.329 246.521 10.8431 246.521 9.19982C246.521 7.55656 246.888 6.07063 247.622 4.74203C248.391 3.41344 249.458 2.38203 250.821 1.6478C252.185 0.878615 253.688 0.494021 255.331 0.494021C256.975 0.494021 258.478 0.878615 259.842 1.6478C261.205 2.38203 262.271 3.41344 263.041 4.74203C263.845 6.07063 264.247 7.55656 264.247 9.19982C264.247 10.8431 263.845 12.329 263.041 13.6576C262.271 14.9862 261.205 16.0351 259.842 16.8043C258.478 17.5385 256.975 17.9056 255.331 17.9056ZM302.164 81.4684C296.395 81.4684 291.273 80.2447 286.798 77.7973C282.358 75.315 278.896 71.9061 276.414 67.5706C273.932 63.2352 272.69 58.3579 272.69 52.9386C272.69 47.4494 273.914 42.5371 276.362 38.2017C278.844 33.8663 282.235 30.4923 286.536 28.0799C290.871 25.6325 295.731 24.4087 301.115 24.4087C306.5 24.4087 311.272 25.615 315.433 28.0274C319.628 30.4399 322.88 33.8138 325.187 38.1492C327.53 42.4497 328.701 47.3445 328.701 52.8337C328.701 54.5469 328.596 56.1902 328.387 57.7635H287.742C288.371 61.2598 289.997 64.0568 292.619 66.1546C295.242 68.2524 298.423 69.3013 302.164 69.3013C304.926 69.3013 307.286 68.7069 309.244 67.5182C311.237 66.3294 312.758 64.6512 313.807 62.4835L326.813 67.4133C324.541 71.8186 321.289 75.2625 317.059 77.7449C312.863 80.2273 307.898 81.4684 302.164 81.4684ZM313.492 46.4355C313.248 44.5475 312.583 42.8692 311.499 41.4008C310.416 39.8974 308.965 38.7261 307.147 37.887C305.363 37.0129 303.353 36.5759 301.115 36.5759C297.864 36.5759 295.067 37.4674 292.724 39.2506C290.382 40.9987 288.808 43.3937 288.004 46.4355H313.492ZM338.771 25.8772H353.665V33.8488H354.032C355.535 30.9119 357.738 28.6043 360.64 26.9261C363.542 25.2479 366.916 24.4087 370.762 24.4087C374.783 24.4087 378.244 25.3528 381.146 27.2408C384.048 29.1288 386.268 31.8384 387.806 35.3697C389.38 38.9009 390.166 43.079 390.166 47.9039V80H375.272V50.4213C375.237 46.5054 374.328 43.4636 372.545 41.2959C370.797 39.1282 368.349 38.0443 365.203 38.0443C361.811 38.0443 359.049 39.268 356.916 41.7155C354.784 44.1279 353.7 47.7641 353.665 52.6239V80H338.771V25.8772ZM441.772 80V72.5529H441.457C439.779 75.5247 437.576 77.7624 434.849 79.2658C432.157 80.7342 429.01 81.4684 425.409 81.4684C420.549 81.4684 416.196 80.2273 412.35 77.7449C408.504 75.2625 405.498 71.8536 403.33 67.5182C401.197 63.1828 400.131 58.3229 400.131 52.9386C400.131 47.5543 401.197 42.6944 403.33 38.359C405.498 34.0236 408.504 30.6147 412.35 28.1323C416.196 25.6499 420.549 24.4087 425.409 24.4087C432.646 24.4087 437.978 27.3456 441.405 33.2194H441.772V4.06025H456.666V80H441.772ZM428.661 67.8329C431.283 67.8329 433.625 67.2035 435.688 65.9449C437.751 64.6862 439.359 62.9205 440.513 60.648C441.702 58.3754 442.296 55.8056 442.296 52.9386C442.296 50.0716 441.702 47.5018 440.513 45.2292C439.359 42.9566 437.751 41.191 435.688 39.9323C433.625 38.6737 431.283 38.0443 428.661 38.0443C426.038 38.0443 423.696 38.6912 421.633 39.9848C419.57 41.2435 417.962 43.0091 416.808 45.2817C415.689 47.5193 415.13 50.0716 415.13 52.9386C415.13 55.8056 415.689 58.3754 416.808 60.648C417.962 62.8856 419.57 64.6512 421.633 65.9449C423.696 67.2035 426.038 67.8329 428.661 67.8329ZM478.483 81.1538C476.665 81.1538 475.022 80.7517 473.553 79.9476C472.12 79.1434 471.001 78.0421 470.197 76.6435C469.393 75.2101 469.008 73.6018 469.043 71.8186C469.008 70.0705 469.393 68.4972 470.197 67.0986C471.001 65.7001 472.12 64.5988 473.553 63.7946C475.022 62.9905 476.665 62.5884 478.483 62.5884C480.266 62.5884 481.874 62.9905 483.308 63.7946C484.741 64.5988 485.878 65.7001 486.717 67.0986C487.556 68.4972 487.993 70.0705 488.028 71.8186C487.993 73.6018 487.556 75.2101 486.717 76.6435C485.878 78.0421 484.741 79.1434 483.308 79.9476C481.874 80.7517 480.266 81.1538 478.483 81.1538ZM524.11 67.8329C526.732 67.8329 529.075 67.2035 531.137 65.9449C533.2 64.6862 534.808 62.9205 535.962 60.648C537.151 58.3754 537.745 55.8056 537.745 52.9386C537.745 50.0716 537.151 47.5018 535.962 45.2292C534.808 42.9566 533.2 41.191 531.137 39.9323C529.075 38.6737 526.732 38.0443 524.11 38.0443C521.488 38.0443 519.145 38.6912 517.082 39.9848C515.019 41.2435 513.411 43.0091 512.257 45.2817C511.138 47.5193 510.579 50.0716 510.579 52.9386C510.579 55.8056 511.138 58.3754 512.257 60.648C513.411 62.8856 515.019 64.6512 517.082 65.9449C519.145 67.2035 521.488 67.8329 524.11 67.8329ZM537.326 80V72.5529H536.906C535.228 75.5247 533.025 77.7624 530.298 79.2658C527.606 80.7342 524.459 81.4684 520.858 81.4684C515.998 81.4684 511.645 80.2273 507.8 77.7449C503.954 75.2625 500.947 71.8536 498.779 67.5182C496.646 63.1828 495.58 58.3229 495.58 52.9386C495.58 47.5543 496.646 42.6944 498.779 38.359C500.947 34.0236 503.954 30.6147 507.8 28.1323C511.645 25.6499 515.998 24.4087 520.858 24.4087C528.096 24.4087 533.427 27.3456 536.854 33.2194H537.326V25.8772H552.22V80H537.326ZM564.912 25.8772H579.806V80H564.912V25.8772ZM572.306 17.9056C570.663 17.9056 569.16 17.5385 567.796 16.8043C566.433 16.0351 565.366 14.9862 564.597 13.6576C563.863 12.329 563.496 10.8431 563.496 9.19982C563.496 7.55656 563.863 6.07063 564.597 4.74203C565.366 3.41344 566.433 2.38203 567.796 1.6478C569.16 0.878615 570.663 0.494021 572.306 0.494021C573.95 0.494021 575.453 0.878615 576.817 1.6478C578.18 2.38203 579.247 3.41344 580.016 4.74203C580.82 6.07063 581.222 7.55656 581.222 9.19982C581.222 10.8431 580.82 12.329 580.016 13.6576C579.247 14.9862 578.18 16.0351 576.817 16.8043C575.453 17.5385 573.95 17.9056 572.306 17.9056ZM660.466 80V71.504H660.099C658.246 74.7555 655.816 77.2379 652.809 78.9511C649.837 80.6293 646.376 81.4684 642.425 81.4684C637.495 81.4684 633.072 80.2273 629.156 77.7449C625.24 75.2625 622.164 71.8536 619.926 67.5182C617.723 63.1478 616.622 58.2879 616.622 52.9386C616.622 47.5893 617.723 42.7469 619.926 38.4115C622.164 34.0411 625.24 30.6147 629.156 28.1323C633.072 25.6499 637.495 24.4087 642.425 24.4087C646.376 24.4087 649.837 25.2653 652.809 26.9785C655.816 28.6568 658.246 31.1217 660.099 34.3732H660.466V4.06025H669.276V80H660.466ZM643.264 73.0773C646.655 73.0773 649.68 72.2207 652.337 70.5075C655.029 68.7943 657.127 66.4169 658.63 63.3751C660.134 60.3333 660.885 56.8545 660.885 52.9386C660.885 49.0227 660.134 45.5439 658.63 42.5021C657.127 39.4603 655.029 37.0829 652.337 35.3697C649.68 33.6565 646.655 32.7999 643.264 32.7999C639.837 32.7999 636.778 33.6565 634.086 35.3697C631.429 37.0829 629.349 39.4778 627.845 42.5546C626.377 45.5964 625.642 49.0577 625.642 52.9386C625.642 56.8195 626.377 60.2983 627.845 63.3751C629.349 66.4169 631.429 68.7943 634.086 70.5075C636.778 72.2207 639.837 73.0773 643.264 73.0773ZM708.61 81.4684C703.4 81.4684 698.68 80.2273 694.45 77.7449C690.219 75.2625 686.88 71.8536 684.433 67.5182C682.02 63.1478 680.814 58.2879 680.814 52.9386C680.814 47.5893 682.02 42.7469 684.433 38.4115C686.88 34.0411 690.219 30.6147 694.45 28.1323C698.68 25.6499 703.4 24.4087 708.61 24.4087C713.819 24.4087 718.539 25.6499 722.77 28.1323C727 30.6147 730.322 34.0411 732.734 38.4115C735.182 42.7469 736.405 47.5893 736.405 52.9386C736.405 58.2879 735.182 63.1478 732.734 67.5182C730.322 71.8536 727 75.2625 722.77 77.7449C718.539 80.2273 713.819 81.4684 708.61 81.4684ZM708.61 73.0773C712.246 73.0773 715.48 72.2207 718.312 70.5075C721.179 68.7943 723.399 66.4169 724.973 63.3751C726.581 60.3333 727.385 56.8545 727.385 52.9386C727.385 49.0227 726.581 45.5439 724.973 42.5021C723.399 39.4603 721.179 37.0829 718.312 35.3697C715.48 33.6565 712.246 32.7999 708.61 32.7999C704.974 32.7999 701.722 33.6565 698.855 35.3697C696.023 37.0829 693.803 39.4603 692.195 42.5021C690.621 45.5439 689.835 49.0227 689.835 52.9386C689.835 56.8545 690.621 60.3333 692.195 63.3751C693.803 66.4169 696.023 68.7943 698.855 70.5075C701.722 72.2207 704.974 73.0773 708.61 73.0773ZM773.431 81.4684C768.152 81.4684 763.379 80.2273 759.114 77.7449C754.848 75.2625 751.492 71.8536 749.045 67.5182C746.632 63.1478 745.426 58.2879 745.426 52.9386C745.426 47.5893 746.632 42.7469 749.045 38.4115C751.492 34.0411 754.848 30.6147 759.114 28.1323C763.379 25.6499 768.152 24.4087 773.431 24.4087C778.396 24.4087 782.819 25.5276 786.7 27.7652C790.616 29.9679 793.71 33.0446 795.982 36.9954L788.221 40.9812C786.752 38.359 784.742 36.3486 782.19 34.9501C779.672 33.5166 776.753 32.7999 773.431 32.7999C769.725 32.7999 766.439 33.6565 763.572 35.3697C760.705 37.0829 758.467 39.4603 756.859 42.5021C755.251 45.5439 754.446 49.0227 754.446 52.9386C754.446 56.8545 755.251 60.3333 756.859 63.3751C758.467 66.4169 760.705 68.7943 763.572 70.5075C766.439 72.2207 769.725 73.0773 773.431 73.0773C776.753 73.0773 779.672 72.3781 782.19 70.9795C784.742 69.546 786.752 67.5182 788.221 64.896L795.982 68.8817C793.71 72.8326 790.616 75.9268 786.7 78.1644C782.819 80.3671 778.396 81.4684 773.431 81.4684Z" fill="white"/>
</svg>
